<?xml version="1.0" encoding="utf-8"?>
<!-- Generator: Adobe Illustrator 16.0.2, SVG Export Plug-In . SVG Version: 6.00 Build 0)  -->
<!DOCTYPE svg PUBLIC "-//W3C//DTD SVG 1.1//EN" "http://www.w3.org/Graphics/SVG/1.1/DTD/svg11.dtd">
<svg version="1.1" id="Group_202" xmlns="http://www.w3.org/2000/svg" xmlns:xlink="http://www.w3.org/1999/xlink" x="0px" y="0px"
	 width="1367.025px" height="462px" viewBox="0 0 1367.025 462" enable-background="new 0 0 1367.025 462" xml:space="preserve">
<linearGradient id="Path_152_1_" gradientUnits="userSpaceOnUse" x1="1667.5967" y1="687.4941" x2="1666.5967" y2="686.5042" gradientTransform="matrix(1367.0251 0 0 -462 -2278353 317601.5)">
	<stop  offset="0" style="stop-color:#F20000"/>
	<stop  offset="1" style="stop-color:#BC0000"/>
</linearGradient>
<path id="Path_152" fill="url(#Path_152_1_)" d="M0,462c0,0,138.5-112.93,310-121.387s208.5,80.593,376,87.558
	S845.5,312.754,994,302.8s188.5,92.533,286,85.568c97.5-6.966,86.667-43.705,86.667-43.705v-344L0,0V462z"/>
<path id="Path_355" fill="#FFFFFF" stroke="#FFFFFF" stroke-miterlimit="10" d="M-125,244.247V-99.899h5.658
	c77.6,51.747,88.6,159.233,184.341,104C117.729-26.32,181.77-68.053,241.222-99.721l231.292,0.113
	c-36.132,23.25-95.349,48.932-85.518,103.709c14,78,60,182-30,184c-38.394,0.854-70.961-20.493-104.227-41.84
	c-44.719-28.695-90.7-57.391-153.773-32.16c-94.464,37.786-183.03,130.145-223.9,130.146H-125z"/>
</svg>
